<svg width="70" height="73" viewBox="0 0 70 73" fill="none" xmlns="http://www.w3.org/2000/svg">
  <path
    d="M23.0818 37.442C16.6893 37.442 11.4886 42.7071 11.4886 49.1783C11.4886 55.6497 16.6893 60.9145 23.0818 60.9145C29.4742 60.9145 34.675 55.6497 34.675 49.1783C34.675 46.8267 33.99 44.5573 32.6945 42.6156C32.3575 42.111 31.6804 41.9781 31.1816 42.3191C30.683 42.6604 30.5518 43.3458 30.8888 43.8506C31.9403 45.4262 32.496 47.2683 32.496 49.1783C32.496 54.4333 28.2729 58.7085 23.082 58.7085C17.8909 58.7085 13.6679 54.4333 13.6679 49.1783C13.6679 43.9234 17.8909 39.6481 23.082 39.6481C23.6837 39.6481 24.1715 39.1543 24.1715 38.5453C24.1713 37.9359 23.6835 37.442 23.0818 37.442Z"
    fill="#5F5A5A"/>
  <path
    d="M43.2231 59.6435L40.3738 56.7587C40.1178 56.4995 40.048 56.0991 40.1887 55.7564C40.1916 55.75 40.2049 55.7183 40.2073 55.7119C40.3543 55.3527 40.6828 55.1206 41.0442 55.1206H45.0738C45.6754 55.1206 46.1633 54.6267 46.1633 54.0176V43.0785C46.1633 42.4694 45.6754 41.9755 45.0738 41.9755H41.0442C40.6828 41.9755 40.3543 41.7433 40.1961 41.3571C40.048 40.9968 40.1179 40.5964 40.3738 40.3369L43.2231 37.4525C43.6486 37.0218 43.6486 36.3235 43.2231 35.8926L35.5824 28.1577C35.1569 27.7271 34.467 27.7271 34.0414 28.1577C33.6159 28.5885 33.6159 29.2869 34.0414 29.7177L40.912 36.6727L38.8331 38.777C37.9506 39.6703 37.6959 41.0155 38.1941 42.2281C38.6794 43.4146 39.798 44.1815 41.0442 44.1815H43.9841V52.9145H41.0442C39.798 52.9145 38.6794 53.6814 38.202 54.8488C38.1996 54.8545 38.1864 54.8859 38.1842 54.8918C37.6955 56.0802 37.9503 57.4258 38.8331 58.3187L40.912 60.4234L34.812 66.5986L32.7332 64.494C31.8505 63.6004 30.5215 63.3426 29.3244 63.8471C28.1522 64.3385 27.3946 65.4712 27.3946 66.7324V69.7087H18.7682V66.7323C18.7682 65.4709 18.0108 64.3383 16.815 63.8371C15.6411 63.3428 14.3124 63.6005 13.4297 64.4938L11.3508 66.5984L5.25105 60.4232L7.32989 58.3186C8.21225 57.425 8.46701 56.0798 7.9689 54.8679C7.48333 53.6814 6.36453 52.9145 5.11884 52.9145H2.17904V44.1815H5.119C6.36486 44.1815 7.48365 43.4146 7.97887 42.2041C8.46702 41.0157 8.21241 39.6704 7.33005 38.7769L5.25121 36.6726L11.351 30.4975L13.4298 32.6018C14.3122 33.4954 15.6409 33.7533 16.8387 33.2489C18.0108 32.7573 18.7682 31.6247 18.7682 30.3636V27.3874H27.3946V30.3636C27.3946 31.625 28.1522 32.7576 29.3244 33.2489C29.7171 33.4136 30.1099 33.597 30.4913 33.7937C31.0268 34.07 31.6832 33.8544 31.9567 33.3116C32.2298 32.7689 32.0167 32.1047 31.4804 31.8281C31.0484 31.6052 30.6035 31.3976 30.158 31.2106C29.803 31.0618 29.5737 30.7293 29.5737 30.3635V26.2841C29.5737 25.6748 29.0858 25.1812 28.4842 25.1812H17.6787C17.077 25.1812 16.5892 25.6748 16.5892 26.2841V30.3635C16.5892 30.7293 16.3598 31.0618 15.9782 31.2219C15.6226 31.372 15.2269 31.3013 14.9708 31.042L12.1216 28.1576C11.696 27.7269 11.006 27.7269 10.5806 28.1576L2.9398 35.8925C2.51423 36.3233 2.51423 37.0218 2.9398 37.4526L5.78906 40.3367C6.04527 40.5963 6.11491 40.9966 5.97048 41.3483C5.96903 41.3518 5.95729 41.3804 5.95568 41.3838C5.80868 41.7432 5.48025 41.9754 5.119 41.9754H1.08952C0.487823 41.9754 0 42.4692 0 43.0783V54.0174C0 54.6266 0.487823 55.1204 1.08952 55.1204H5.11916C5.48041 55.1204 5.80884 55.3526 5.9671 55.7388C6.11508 56.0991 6.04527 56.4995 5.78922 56.7587L2.93996 59.6431C2.51439 60.074 2.51439 60.7725 2.93996 61.2033L10.5808 68.9382C11.0063 69.3689 11.6962 69.3689 12.1217 68.9382L14.971 66.0536C15.2271 65.7941 15.6226 65.7242 15.97 65.8701C15.9733 65.8716 16.0016 65.8835 16.005 65.8851C16.36 66.0339 16.5894 66.3664 16.5894 66.7323V70.8115C16.5894 71.4208 17.0772 71.9145 17.6789 71.9145H28.4845C29.0862 71.9145 29.574 71.4208 29.574 70.8115V66.7323C29.574 66.3663 29.8034 66.0338 30.1461 65.8898C30.1508 65.8879 30.1807 65.8755 30.1852 65.8736C30.541 65.7236 30.9366 65.7946 31.1925 66.0535L34.0418 68.9379C34.2462 69.1448 34.5233 69.2609 34.8123 69.2609C35.1012 69.2609 35.3783 69.1448 35.5828 68.938L43.2234 61.2031C43.6486 60.7723 43.6486 60.074 43.2231 59.6435Z"
    fill="#5F5A5A"/>
  <path
    d="M54.4463 45.2244C54.4463 49.1403 57.5933 52.3262 61.4617 52.3262C65.3302 52.3262 68.4772 49.1403 68.4772 45.2244C68.4772 41.3083 65.3302 38.1222 61.4617 38.1222C57.5933 38.1222 54.4463 41.3083 54.4463 45.2244ZM66.298 45.2244C66.298 47.924 64.1284 50.1203 61.4617 50.1203C58.795 50.1203 56.6253 47.924 56.6253 45.2244C56.6253 42.5244 58.795 40.3283 61.4617 40.3283C64.1284 40.3283 66.298 42.5244 66.298 45.2244Z"
    fill="#5F5A5A"/>
  <path
    d="M68.581 66.5997C69.1825 66.5997 69.6705 66.106 69.6705 65.4969V62.7343C69.6705 58.1516 65.9878 54.4235 61.4608 54.4235C56.9339 54.4235 53.2512 58.1516 53.2512 62.7343V69.8366H39.9865C39.385 69.8366 38.897 70.3303 38.897 70.9396C38.897 71.5487 39.385 72.0424 39.9865 72.0424H54.2879C54.3058 72.0434 54.3227 72.0478 54.3407 72.0478H68.5808C69.1824 72.0478 69.6703 71.5539 69.6703 70.945C69.6703 70.3357 69.1824 69.8418 68.5808 69.8418H55.4303V62.7343C55.4303 59.3681 58.1357 56.6294 61.4608 56.6294C64.786 56.6294 67.4913 59.3681 67.4913 62.7343V65.4969C67.4913 66.106 67.9793 66.5997 68.581 66.5997Z"
    fill="#5F5A5A"/>
  <path
    d="M8.71647 24.4915C9.31817 24.4915 9.80599 23.9976 9.80599 23.3885V4.84167H17.0331C17.6348 4.84167 18.1226 4.34799 18.1226 3.73871C18.1226 3.12958 17.6348 2.63574 17.0331 2.63574H8.71647C8.11478 2.63574 7.62695 3.12958 7.62695 3.73871V23.3885C7.62695 23.9978 8.11478 24.4915 8.71647 24.4915Z"
    fill="#5F5A5A"/>
  <path
    d="M54.0461 4.84167H61.4339V31.5344C61.4339 32.1437 61.9217 32.6374 62.5234 32.6374C63.125 32.6374 63.6128 32.1435 63.6128 31.5344V3.73871C63.6128 3.12958 63.125 2.63574 62.5234 2.63574H54.0461C53.4446 2.63574 52.9568 3.12958 52.9568 3.73871C52.9568 4.34799 53.4446 4.84167 54.0461 4.84167Z"
    fill="#5F5A5A"/>
  <path
    d="M23.4764 9.59207H47.7638C48.3653 9.59207 48.8531 9.09823 48.8531 8.4891V1.10296C48.8531 0.493842 48.3653 0 47.7638 0H23.4764C22.8747 0 22.3868 0.493842 22.3868 1.10296V8.4891C22.3868 9.09823 22.8747 9.59207 23.4764 9.59207ZM24.5659 2.20593H46.6741V7.38598H24.5659V2.20593Z"
    fill="#5F5A5A"/>
  <path
    d="M23.0815 42.0425C22.4797 42.0425 21.992 42.5364 21.992 43.1455V49.1782C21.992 49.7874 22.4797 50.281 23.0815 50.281H27.0565C27.6582 50.281 28.146 49.7874 28.146 49.1782C28.146 48.5689 27.6582 48.0751 27.0565 48.0751H24.1712V43.1456C24.171 42.5364 23.6832 42.0425 23.0815 42.0425Z"
    fill="#5F5A5A"/>
  <path
    d="M20.7867 18.2716H45.3853C45.9869 18.2716 46.4747 17.7781 46.4747 17.169C46.4747 16.5602 45.9869 16.0665 45.3853 16.0665H20.7867C20.1848 16.0665 19.6972 16.5602 19.6972 17.169C19.6972 17.7779 20.1848 18.2716 20.7867 18.2716Z"
    fill="#5F5A5A"/>
  <path
    d="M45.3853 24.9683H40.389C39.7875 24.9683 39.2995 25.4619 39.2995 26.0708C39.2995 26.6796 39.7875 27.1733 40.389 27.1733H45.3853C45.9869 27.1733 46.4747 26.6796 46.4747 26.0708C46.4747 25.4619 45.9869 24.9683 45.3853 24.9683Z"
    fill="#5F5A5A"/>
  <path
    d="M51.9379 19.5116C52.1507 19.7269 52.4296 19.8345 52.7081 19.8345C52.987 19.8345 53.2661 19.7267 53.4786 19.5115L56.565 16.3867C56.9906 15.9561 56.9906 15.2577 56.565 14.8269C56.1395 14.3964 55.4493 14.3962 55.0244 14.827L52.7081 17.1719L51.7904 16.243C51.3648 15.8123 50.6747 15.8121 50.2497 16.2431C49.8241 16.6738 49.8241 17.3723 50.2497 17.803L51.9379 19.5116Z"
    fill="#5F5A5A"/>
  <path
    d="M51.9379 28.4137C52.1507 28.629 52.4296 28.7368 52.7081 28.7368C52.987 28.7368 53.2661 28.629 53.4786 28.4136L56.565 25.2888C56.9906 24.8582 56.9906 24.1598 56.565 23.729C56.1395 23.2985 55.4493 23.2983 55.0244 23.7291L52.7081 26.074L51.7904 25.1451C51.3648 24.7144 50.6747 24.7142 50.2497 25.1451C49.8241 25.5757 49.8241 26.2742 50.2497 26.7049L51.9379 28.4137Z"
    fill="#5F5A5A"/>
</svg>
