<svg width="34" height="34" viewBox="0 0 34 34" fill="none" xmlns="http://www.w3.org/2000/svg">
  <path
    d="M11.1666 16.9999C11.1666 18.6666 11.1666 20.3333 11.3666 21.9999H10.9833C9.17769 22.5126 7.4506 23.2696 5.84998 24.2499C4.89108 24.8254 3.99215 25.4954 3.16665 26.2499C1.32514 23.5041 0.341858 20.2727 0.341858 16.9666C0.341858 13.6605 1.32514 10.429 3.16665 7.68325C3.99215 8.43774 4.89108 9.10774 5.84998 9.68325C7.44107 10.6868 9.16281 11.4663 10.9666 11.9999H11.3666C11.2333 13.6666 11.1666 15.3333 11.1666 16.9999ZM4.16665 6.36658C4.98751 7.13151 5.88696 7.80749 6.84998 8.38325C8.28296 9.23671 9.82469 9.89264 11.4333 10.3333C11.6224 8.33934 11.9566 6.36188 12.4333 4.41658C12.7292 3.09407 13.1708 1.80844 13.75 0.583252C9.98687 1.35507 6.60341 3.39692 4.16665 6.36658ZM20.1833 0.633252C20.7625 1.85844 21.2041 3.14407 21.5 4.46659C21.9743 6.39548 22.3085 8.35615 22.5 10.3333C24.1156 9.8822 25.6629 9.21507 27.1 8.34992C28.0788 7.78761 28.9951 7.12276 29.8333 6.36658C27.3718 3.40248 23.9636 1.37761 20.1833 0.633252ZM13.1333 23.2166C13.3462 25.5367 13.7588 27.8341 14.3666 30.0833C14.6796 31.345 15.1796 32.5528 15.85 33.6666H17H18.15C18.8173 32.5631 19.3172 31.3668 19.6333 30.1166C20.2412 27.8674 20.6538 25.57 20.8666 23.2499C18.317 22.7222 15.6874 22.7109 13.1333 23.2166ZM21 12.4499C19.682 12.7053 18.3425 12.8336 17 12.8333C15.6575 12.8336 14.318 12.7053 13 12.4499C12.8833 13.8666 12.8333 15.3999 12.8333 16.9999C12.8333 18.5999 12.8333 20.1333 13 21.5666C15.6424 21.0581 18.3576 21.0581 21 21.5666C21.1166 20.1499 21.1666 18.6166 21.1666 17.0166C21.1666 15.4166 21.1166 13.8666 21 12.4499ZM19.6333 3.91659C19.3203 2.65485 18.8204 1.44704 18.15 0.333252H17H15.85C15.1826 1.43669 14.6827 2.63305 14.3666 3.88325C13.7588 6.13241 13.3462 8.42982 13.1333 10.7499C15.6852 11.2666 18.3148 11.2666 20.8666 10.7499C20.6519 8.44103 20.2393 6.15486 19.6333 3.91659ZM30.8333 7.71658C30.0078 8.47107 29.1089 9.14108 28.15 9.71659C26.5512 10.7086 24.824 11.4768 23.0166 11.9999H22.6333C22.7666 13.6666 22.8333 15.3333 22.8333 16.9999C22.8333 18.6666 22.8333 20.3333 22.6333 21.9999L23.0333 22.0999C24.8337 22.6126 26.5553 23.3696 28.15 24.3499C29.1089 24.9254 30.0078 25.5954 30.8333 26.3499C32.6748 23.6041 33.6581 20.3727 33.6581 17.0666C33.6581 13.7605 32.6748 10.529 30.8333 7.78325V7.71658ZM27.15 25.6166C25.717 24.7631 24.1753 24.1072 22.5666 23.6666C22.3776 25.6605 22.0434 27.638 21.5666 29.5833C21.2708 30.9058 20.8292 32.1914 20.25 33.4166C24.0303 32.6722 27.4385 30.6474 29.9 27.6833C29.0607 26.897 28.1386 26.2041 27.15 25.6166ZM12.5 29.5333C12.0257 27.6044 11.6915 25.6437 11.5 23.6666C9.88437 24.1176 8.33706 24.7848 6.89998 25.6499C5.92112 26.2122 5.00485 26.8771 4.16665 27.6332C6.62817 30.5974 10.0363 32.6222 13.8166 33.3666C13.2374 32.1414 12.7958 30.8558 12.5 29.5333Z"
    fill="white"/>
</svg>
