<svg width="112" height="60" viewBox="0 0 112 60" fill="none" xmlns="http://www.w3.org/2000/svg">
  <g clip-path="url(#clip0_0_60)">
    <path d="M46.6702 45.9341V0.0517578H35.6096V21.3573" fill="#68092D"/>
    <path
      d="M35.5999 21.3486C28.4712 14.2554 21.3339 7.17073 14.1966 0.0774749C14.1795 0.0516499 14.1538 0.025825 14.1367 0C9.4868 0 4.83687 0 0.186943 0C0.0159893 0 -0.0609397 0.197991 0.0587276 0.318508C15.3676 15.4261 30.6679 30.5337 45.9768 45.6413C46.1648 45.8221 46.4127 45.9254 46.6691 45.9254"
      fill="#68092D"/>
    <path
      d="M23.3351 37.9798C18.3689 37.9798 13.3942 37.9626 8.428 37.954C8.40236 32.9784 8.37672 27.9942 8.35107 23.0186C13.3429 28.0028 18.3347 32.9956 23.3351 37.9798Z"
      fill="#68092D"/>
    <path
      d="M77.023 37.9798C72.0568 37.9798 67.0821 37.9626 62.1159 37.954C62.0902 32.9784 62.0646 27.9942 62.0389 23.0186C67.0308 28.0028 72.0226 32.9956 77.023 37.9798Z"
      fill="#68092D"/>
    <path
      d="M66.3384 0.0517578C61.6885 0.0517578 57.0385 0.0517578 52.3886 0.0517578C67.7317 15.3401 83.0747 30.6371 98.4178 45.9255H111.991C96.7766 30.6371 81.5618 15.3487 66.3384 0.0517578Z"
      fill="#68092D"/>
    <path d="M52.5596 59.9482V51.9941H53.346V59.9482H52.5596Z" fill="#68092D"/>
    <path
      d="M60.3294 53.4403V59.9482H59.543V51.9941H60.1926L65.4495 58.6225V52.0027H66.2358V59.9396H65.5007L60.3294 53.4317V53.4403Z"
      fill="#68092D"/>
    <path d="M72.3902 51.9941L75.2536 58.9669L78.1085 51.9941H78.9291L75.6126 59.9482H74.8946L71.5696 51.9941H72.3902Z"
          fill="#68092D"/>
    <path
      d="M89.6308 59.251V59.9482H84.2543V51.9941H89.5282V52.6914H85.0407V55.558H88.9555V56.2208H85.0407V59.2596H89.6308V59.251Z"
      fill="#68092D"/>
    <path
      d="M99.9307 53.4834C99.8195 53.3543 99.6828 53.2424 99.5375 53.1391C99.3836 53.0358 99.2212 52.9497 99.0332 52.8722C98.8451 52.7947 98.6485 52.7345 98.4263 52.6914C98.2126 52.6484 97.9818 52.6226 97.7425 52.6226C97.0415 52.6226 96.5287 52.7517 96.2039 53.0186C95.8791 53.2854 95.7167 53.647 95.7167 54.0946C95.7167 54.4045 95.7936 54.6541 95.9474 54.8349C96.1013 55.0157 96.3406 55.162 96.674 55.2739C97.0074 55.3858 97.4262 55.4977 97.9391 55.6183C98.5117 55.7388 98.999 55.8765 99.4178 56.0401C99.8281 56.2036 100.153 56.4275 100.375 56.7029C100.597 56.9784 100.717 57.3571 100.717 57.8392C100.717 58.2008 100.649 58.5193 100.503 58.7861C100.358 59.053 100.161 59.2768 99.905 59.4576C99.6486 59.6384 99.3494 59.7675 98.9904 59.8536C98.6314 59.9396 98.2468 59.9827 97.8279 59.9827C97.4091 59.9827 97.0159 59.9396 96.6398 59.8536C96.2637 59.7675 95.9047 59.6384 95.5628 59.4748C95.2209 59.3112 94.9132 59.096 94.614 58.8292L95.0072 58.1922C95.1525 58.3385 95.3235 58.4848 95.5201 58.614C95.7167 58.7431 95.9389 58.8636 96.1868 58.9669C96.4347 59.0702 96.6911 59.1477 96.9732 59.2079C97.2552 59.2682 97.5459 59.294 97.845 59.294C98.4861 59.294 98.9819 59.1821 99.3409 58.9497C99.6999 58.7173 99.8794 58.3729 99.8794 57.9253C99.8794 57.5982 99.7853 57.3313 99.6058 57.1333C99.4263 56.9353 99.1528 56.7718 98.7938 56.6513C98.4348 56.5221 97.9903 56.4016 97.4604 56.2811C96.9048 56.152 96.4347 56.0142 96.05 55.8593C95.6654 55.7043 95.3833 55.4977 95.1867 55.2395C94.9987 54.9812 94.8961 54.6455 94.8961 54.2151C94.8961 53.7244 95.0157 53.3112 95.2636 52.9669C95.5115 52.6312 95.8449 52.3729 96.2723 52.1922C96.6996 52.02 97.1954 51.9253 97.751 51.9253C98.1015 51.9253 98.4348 51.9597 98.734 52.0286C99.0417 52.0975 99.3238 52.2008 99.5802 52.3385C99.8366 52.4762 100.085 52.6398 100.307 52.8464L99.9221 53.4748L99.9307 53.4834Z"
      fill="#68092D"/>
    <path d="M111.949 52.6914H109.094V59.9482H108.307V52.6914H105.453V51.9941H111.949V52.6914Z" fill="#68092D"/>
  </g>
  <defs>
    <clipPath id="clip0_0_60">
      <rect width="112" height="60" fill="white"/>
    </clipPath>
  </defs>
</svg>
