<svg width="90" height="68" viewBox="0 0 90 68" fill="none" xmlns="http://www.w3.org/2000/svg">
  <path
    d="M45 16.4183H58C59.1046 16.4183 60 15.5228 60 14.4183V3.39399C60 1.67786 62.0194 0.758703 63.3135 1.88578L88.2683 23.6192C89.1836 24.4164 89.1836 25.8384 88.2683 26.6356L63.3135 48.369C62.0194 49.4961 60 48.5769 60 46.8608V35.8365C60 34.732 59.1046 33.8365 58 33.8365H32C30.8954 33.8365 30 32.9411 30 31.8365V20.8123C30 19.0961 27.9806 18.177 26.6865 19.3041L1.73175 41.0375C0.816435 41.8346 0.816436 43.2567 1.73175 44.0539L26.6865 65.7873C27.9806 66.9144 30 65.9952 30 64.2791V53.2548C30 52.1502 30.8954 51.2548 32 51.2548H45"
    stroke="#5F5A5A" stroke-width="2"/>
</svg>
